<svg xmlns="http://www.w3.org/2000/svg" viewBox="0 0 420 320" role="img" aria-label="Nuts &amp; Dried Products">
  <defs>
    <linearGradient id="g" x1="0" x2="1" y1="0" y2="1"><stop offset="0" stop-color="#f3f8ef"/><stop offset="1" stop-color="#d9f0d1"/></linearGradient>
    <filter id="shadow" x="-20%" y="-20%" width="140%" height="140%"><feDropShadow dx="0" dy="10" stdDeviation="12" flood-color="#0b5d1e" flood-opacity=".18"/></filter>
  </defs>
  <rect width="420" height="320" rx="28" fill="url(#g)"/>
  <circle cx="340" cy="72" r="64" fill="#fff" opacity=".45"/>
  <circle cx="60" cy="258" r="70" fill="#fff" opacity=".35"/>
  <g fill="none" stroke="#0b5d1e" stroke-width="7" stroke-linecap="round" stroke-linejoin="round" filter="url(#shadow)">
    <path d="M65 155 C65 120 100 100 130 120 C165 140 155 195 105 200 C80 198 65 180 65 155Z"/>
    <path d="M250 100 C275 70 320 74 344 104" opacity=".45"/>
    <path d="M248 142 C286 116 330 122 360 158" opacity=".35"/>
    <path d="M250 190 C285 172 326 177 350 207" opacity=".25"/>
  </g>
  <text x="210" y="270" text-anchor="middle" font-family="Arial, sans-serif" font-weight="700" font-size="22" fill="#003b1f">Nuts &amp; Dried Products</text>
  <text x="210" y="296" text-anchor="middle" font-family="Arial, sans-serif" font-size="14" fill="#315c3e">6 Products</text>
</svg>